<?xml version="1.0" standalone="yes"?>

<svg version="1.1" viewBox="0.0 0.0 498.3910761154856 445.9763779527559" fill="none" stroke="none" stroke-linecap="square" stroke-miterlimit="10" xmlns="http://www.w3.org/2000/svg" xmlns:xlink="http://www.w3.org/1999/xlink"><clipPath id="p.0"><path d="m0 0l498.39108 0l0 445.97638l-498.39108 0l0 -445.97638z" clip-rule="nonzero"></path></clipPath><g clip-path="url(#p.0)"><path fill="#000000" fill-opacity="0.0" d="m0 0l498.39108 0l0 445.97638l-498.39108 0z" fill-rule="nonzero"></path><path fill="#eeeeee" d="m0 282.23553l140.18993 162.47l43.63472 0l110.47943 -442.84985l-57.561172 -1.8553765z" fill-rule="nonzero"></path><path stroke="#595959" stroke-width="1.0" stroke-linejoin="round" stroke-linecap="butt" d="m0 282.23553l140.18993 162.47l43.63472 0l110.47943 -442.84985l-57.561172 -1.8553765z" fill-rule="nonzero"></path><path fill="#000000" fill-opacity="0.0" d="m121.971375 204.99213l50.362198 0l0 45.133865l-50.362198 0z" fill-rule="nonzero"></path><path fill="#000000" d="m143.01825 231.50587l-0.09375 0.53125q-0.328125 0.03125 -0.578125 0.03125q-0.359375 0 -0.875 -0.0625q-0.875 -0.09375 -1.109375 -0.09375q-0.375 0 -1.1875 0.125q0.28125 -0.734375 0.484375 -1.53125q0.140625 -0.5625 0.296875 -1.9375q-1.09375 -0.015625 -3.375 0.046875q-2.359375 3.59375 -3.453125 4.515625q-1.09375 0.921875 -2.09375 0.921875q-0.515625 0 -0.765625 -0.203125q-0.265625 -0.1875 -0.265625 -0.515625q0 -0.234375 0.15625 -0.390625q0.140625 -0.15625 0.359375 -0.15625q0.140625 0 0.359375 0.046875q0.5625 0.125 0.75 0.125q0.609375 0 1.359375 -0.703125q1.234375 -1.15625 3.625 -4.828125q2.703125 -4.15625 4.390625 -6.046875q-2.296875 0.203125 -2.859375 0.390625q-0.78125 0.25 -1.171875 0.75q-0.390625 0.484375 -0.390625 1.0q0 0.15625 0.125 0.46875q0.125 0.34375 0.125 0.5q0 0.203125 -0.15625 0.359375q-0.15625 0.15625 -0.375 0.15625q-0.3125 0 -0.515625 -0.234375q-0.1875 -0.234375 -0.1875 -0.703125q0 -0.671875 0.34375 -1.296875q0.359375 -0.625 1.0 -1.046875q0.65625 -0.421875 1.625 -0.65625q0.5 -0.109375 1.765625 -0.203125q1.09375 -0.09375 1.375 -0.171875q0.4375 -0.125 0.828125 -0.484375q-0.265625 1.140625 -0.390625 2.0l-0.71875 5.359375l-0.421875 3.84375q0.6875 0.171875 1.234375 0.171875q0.359375 0 0.78125 -0.078125zm-2.984375 -3.625q0.453125 -3.765625 0.890625 -5.5q-1.171875 1.546875 -1.453125 1.953125l-2.390625 3.546875q0.78125 0.015625 2.203125 0.015625q0.359375 0 0.75 -0.015625z" fill-rule="nonzero"></path><path fill="#000000" fill-opacity="0.0" d="m457.19183 163.76378l50.362213 0l0 45.133865l-50.362213 0z" fill-rule="nonzero"></path><path fill="#000000" d="m472.16058 191.05878l-0.34375 -4.484375q-0.09375 -1.375 -0.09375 -1.8125q0 -1.25 0.359375 -2.296875q0.359375 -1.0625 1.265625 -2.265625q-1.09375 0 -2.21875 0.53125q-1.125 0.515625 -1.65625 1.1875q-0.515625 0.671875 -0.515625 1.359375q0 0.3125 0.1875 0.671875q0.25 0.4375 0.25 0.671875q0 0.21875 -0.125 0.359375q-0.125 0.125 -0.328125 0.125q-0.296875 0 -0.515625 -0.3125q-0.28125 -0.40625 -0.28125 -1.015625q0 -1.125 0.84375 -2.171875q0.859375 -1.046875 2.34375 -1.546875q0.953125 -0.328125 2.78125 -0.453125q0.5 -0.03125 1.0 -0.09375q-1.25 1.84375 -1.640625 3.078125q-0.375 1.21875 -0.375 3.328125q0 1.609375 0.171875 2.953125l1.78125 -1.90625l1.515625 -1.5625q2.3125 -2.359375 3.109375 -3.734375q0.59375 -1.015625 0.59375 -1.859375q0 -0.46875 -0.203125 -1.03125q-0.140625 -0.34375 -0.140625 -0.53125q0 -0.25 0.1875 -0.4375q0.1875 -0.1875 0.453125 -0.1875q0.34375 0 0.578125 0.359375q0.25 0.359375 0.25 1.140625q0 0.75 -0.3125 1.59375q-0.3125 0.828125 -1.328125 2.125q-1.015625 1.296875 -3.125 3.453125q-2.21875 2.234375 -4.46875 4.765625zm5.755066 3.1875l9.203125 -16.40625l0.96875 0l-9.203125 16.40625l-0.96875 0zm18.605835 -3.96875l-0.09375 0.53125q-0.328125 0.03125 -0.578125 0.03125q-0.359375 0 -0.875 -0.0625q-0.875 -0.09375 -1.109375 -0.09375q-0.375 0 -1.1875 0.125q0.28125 -0.734375 0.484375 -1.53125q0.140625 -0.5625 0.296875 -1.9375q-1.09375 -0.015625 -3.375 0.046875q-2.359375 3.59375 -3.453125 4.515625q-1.09375 0.921875 -2.09375 0.921875q-0.515625 0 -0.765625 -0.203125q-0.265625 -0.1875 -0.265625 -0.515625q0 -0.234375 0.15625 -0.390625q0.140625 -0.15625 0.359375 -0.15625q0.140625 0 0.359375 0.046875q0.5625 0.125 0.75 0.125q0.609375 0 1.359375 -0.703125q1.234375 -1.15625 3.625 -4.828125q2.703125 -4.15625 4.390625 -6.046875q-2.296875 0.203125 -2.859375 0.390625q-0.78125 0.25 -1.171875 0.75q-0.390625 0.484375 -0.390625 1.0q0 0.15625 0.125 0.46875q0.125 0.34375 0.125 0.5q0 0.203125 -0.15625 0.359375q-0.15625 0.15625 -0.375 0.15625q-0.3125 0 -0.515625 -0.234375q-0.1875 -0.234375 -0.1875 -0.703125q0 -0.671875 0.34375 -1.296875q0.359375 -0.625 1.0 -1.046875q0.65625 -0.421875 1.625 -0.65625q0.5 -0.109375 1.765625 -0.203125q1.09375 -0.09375 1.375 -0.171875q0.4375 -0.125 0.828125 -0.484375q-0.265625 1.140625 -0.390625 2.0l-0.71875 5.359375l-0.421875 3.84375q0.6875 0.171875 1.234375 0.171875q0.359375 0 0.78125 -0.078125zm-2.984375 -3.625q0.453125 -3.765625 0.890625 -5.5q-1.171875 1.546875 -1.453125 1.953125l-2.390625 3.546875q0.78125 0.015625 2.203125 0.015625q0.359375 0 0.75 -0.015625z" fill-rule="nonzero"></path><path fill="#000000" fill-opacity="0.0" d="m164.79515 119.77428l31.2126 0l0 37.32283l-31.2126 0z" fill-rule="nonzero"></path><path fill="#000000" d="m180.87328 146.69427l-1.671875 0l0 -10.640625q-0.59375 0.578125 -1.578125 1.15625q-0.984375 0.5625 -1.765625 0.859375l0 -1.625q1.40625 -0.65625 2.453125 -1.59375q1.046875 -0.9375 1.484375 -1.8125l1.078125 0l0 13.65625z" fill-rule="nonzero"></path><path fill="#000000" fill-opacity="0.0" d="m211.30815 119.77559l31.2126 0l0 37.32283l-31.2126 0z" fill-rule="nonzero"></path><path fill="#000000" d="m227.38628 146.69559l-1.671875 0l0 -10.640625q-0.59375 0.578125 -1.578125 1.15625q-0.984375 0.5625 -1.765625 0.859375l0 -1.625q1.40625 -0.65625 2.453125 -1.59375q1.046875 -0.9375 1.484375 -1.8125l1.078125 0l0 13.65625z" fill-rule="nonzero"></path><path fill="#000000" fill-opacity="0.0" d="m297.27304 119.7769l45.5748 0l0 37.32283l-45.5748 0z" fill-rule="nonzero"></path><path fill="#000000" d="m306.88242 142.61877l0 -1.6875l5.125 0l0 1.6875l-5.125 0zm12.681427 4.078125l-1.671875 0l0 -10.640625q-0.59375 0.578125 -1.578125 1.15625q-0.984375 0.5625 -1.765625 0.859375l0 -1.625q1.40625 -0.65625 2.453125 -1.59375q1.046875 -0.9375 1.484375 -1.8125l1.078125 0l0 13.65625z" fill-rule="nonzero"></path><path fill="#000000" fill-opacity="0.0" d="m345.27304 119.7769l45.5748 0l0 37.32283l-45.5748 0z" fill-rule="nonzero"></path><path fill="#000000" d="m354.88242 142.61877l0 -1.6875l5.125 0l0 1.6875l-5.125 0zm12.681427 4.078125l-1.671875 0l0 -10.640625q-0.59375 0.578125 -1.578125 1.15625q-0.984375 0.5625 -1.765625 0.859375l0 -1.625q1.40625 -0.65625 2.453125 -1.59375q1.046875 -0.9375 1.484375 -1.8125l1.078125 0l0 13.65625z" fill-rule="nonzero"></path><path fill="#000000" fill-opacity="0.0" d="m96.170395 166.3124l45.574814 0l0 37.322845l-45.574814 0z" fill-rule="nonzero"></path><path fill="#000000" d="m105.77977 189.15427l0 -1.6875l5.125 0l0 1.6875l-5.125 0zm12.681427 4.078125l-1.671875 0l0 -10.640625q-0.59375 0.578125 -1.578125 1.15625q-0.984375 0.5625 -1.765625 0.859375l0 -1.625q1.40625 -0.65625 2.453125 -1.59375q1.046875 -0.9375 1.484375 -1.8125l1.078125 0l0 13.65625z" fill-rule="nonzero"></path><path fill="#000000" fill-opacity="0.0" d="m256.67963 167.66936l45.5748 0l0 37.32283l-45.5748 0z" fill-rule="nonzero"></path><path fill="#000000" d="m266.289 190.51123l0 -1.6875l5.125 0l0 1.6875l-5.125 0zm12.681427 4.078125l-1.671875 0l0 -10.640625q-0.59375 0.578125 -1.578125 1.15625q-0.984375 0.5625 -1.765625 0.859375l0 -1.625q1.40625 -0.65625 2.453125 -1.59375q1.046875 -0.9375 1.484375 -1.8125l1.078125 0l0 13.65625z" fill-rule="nonzero"></path><path fill="#000000" fill-opacity="0.0" d="m256.67963 253.63402l45.5748 0l0 37.32283l-45.5748 0z" fill-rule="nonzero"></path><path fill="#000000" d="m266.289 276.4759l0 -1.6875l5.125 0l0 1.6875l-5.125 0zm12.681427 4.078125l-1.671875 0l0 -10.640625q-0.59375 0.578125 -1.578125 1.15625q-0.984375 0.5625 -1.765625 0.859375l0 -1.625q1.40625 -0.65625 2.453125 -1.59375q1.046875 -0.9375 1.484375 -1.8125l1.078125 0l0 13.65625z" fill-rule="nonzero"></path><path fill="#000000" fill-opacity="0.0" d="m84.06024 325.73752l31.2126 0l0 37.322845l-31.2126 0z" fill-rule="nonzero"></path><path fill="#000000" d="m100.13837 352.65753l-1.671875 0l0 -10.640625q-0.59375 0.578125 -1.578125 1.15625q-0.984375 0.5625 -1.765625 0.859375l0 -1.625q1.40625 -0.65625 2.453125 -1.59375q1.046875 -0.9375 1.484375 -1.8125l1.078125 0l0 13.65625z" fill-rule="nonzero"></path><path fill="#eeeeee" d="m233.80144 27.285933l0 0c0 -13.018801 10.553818 -23.572624 23.572617 -23.572624l0 0c6.2518616 0 12.24765 2.4835372 16.668365 6.9042616c4.4207153 4.420725 6.9042664 10.416514 6.9042664 16.668362l0 0c0 13.018801 -10.553833 23.572622 -23.572632 23.572622l0 0c-13.018799 0 -23.572617 -10.553822 -23.572617 -23.572622z" fill-rule="nonzero"></path><path stroke="#595959" stroke-width="1.0" stroke-linejoin="round" stroke-linecap="butt" d="m233.80144 27.285933l0 0c0 -13.018801 10.553818 -23.572624 23.572617 -23.572624l0 0c6.2518616 0 12.24765 2.4835372 16.668365 6.9042616c4.4207153 4.420725 6.9042664 10.416514 6.9042664 16.668362l0 0c0 13.018801 -10.553833 23.572622 -23.572632 23.572622l0 0c-13.018799 0 -23.572617 -10.553822 -23.572617 -23.572622z" fill-rule="nonzero"></path><path fill="#000000" d="m258.0181 21.760307l1.046875 0.265625q-0.328125 1.28125 -1.1875 1.96875q-0.84375 0.671875 -2.078125 0.671875q-1.28125 0 -2.078125 -0.515625q-0.796875 -0.53125 -1.21875 -1.515625q-0.40625 -0.984375 -0.40625 -2.109375q0 -1.21875 0.46875 -2.140625q0.46875 -0.921875 1.328125 -1.390625q0.875 -0.484375 1.921875 -0.484375q1.1875 0 1.984375 0.609375q0.8125 0.59375 1.125 1.6875l-1.03125 0.25q-0.265625 -0.859375 -0.796875 -1.25q-0.515625 -0.390625 -1.296875 -0.390625q-0.921875 0 -1.53125 0.4375q-0.609375 0.421875 -0.859375 1.15625q-0.234375 0.734375 -0.234375 1.515625q0 1.0 0.28125 1.75q0.296875 0.75 0.90625 1.125q0.625 0.375 1.34375 0.375q0.875 0 1.484375 -0.5q0.609375 -0.515625 0.828125 -1.515625z" fill-rule="nonzero"></path><path fill="#000000" d="m261.8543 28.525932l-0.609375 0l0 -3.921875q-0.234375 0.21875 -0.59375 0.4375q-0.359375 0.203125 -0.640625 0.3125l0 -0.609375q0.515625 -0.234375 0.890625 -0.578125q0.390625 -0.34375 0.5625 -0.671875l0.390625 0l0 5.03125z" fill-rule="nonzero"></path><path fill="#000000" d="m258.9284 32.932182l0 0.59375l-3.3125153 0q-0.015625 -0.21875 0.0625 -0.421875q0.125 -0.34375 0.40626526 -0.671875q0.28125 -0.328125 0.8125 -0.765625q0.8125 -0.65625 1.09375 -1.046875q0.296875 -0.40625 0.296875 -0.75q0 -0.359375 -0.265625 -0.609375q-0.265625 -0.25 -0.6875 -0.25q-0.4375 0 -0.703125 0.265625q-0.265625 0.265625 -0.28125 0.734375l-0.62501526 -0.0625q0.0625 -0.71875 0.48439026 -1.078125q0.421875 -0.375 1.140625 -0.375q0.71875 0 1.140625 0.40625q0.421875 0.390625 0.421875 0.984375q0 0.296875 -0.125 0.59375q-0.125 0.28125 -0.40625 0.609375q-0.28125 0.328125 -0.953125 0.875q-0.546875 0.46875 -0.703125 0.640625q-0.15625 0.15625 -0.265625 0.328125l2.46875 0z" fill-rule="nonzero"></path><path fill="#eeeeee" d="m131.82248 414.27206l0 0c0 -13.018799 10.553818 -23.572632 23.572617 -23.572632l0 0c6.2518616 0 12.24765 2.483551 16.668365 6.9042664c4.4207306 4.4207153 6.9042664 10.416504 6.9042664 16.668365l0 0c0 13.018799 -10.553833 23.572632 -23.572632 23.572632l0 0c-13.018799 0 -23.572617 -10.553833 -23.572617 -23.572632z" fill-rule="nonzero"></path><path stroke="#595959" stroke-width="1.0" stroke-linejoin="round" stroke-linecap="butt" d="m131.82248 414.27206l0 0c0 -13.018799 10.553818 -23.572632 23.572617 -23.572632l0 0c6.2518616 0 12.24765 2.483551 16.668365 6.9042664c4.4207306 4.4207153 6.9042664 10.416504 6.9042664 16.668365l0 0c0 13.018799 -10.553833 23.572632 -23.572632 23.572632l0 0c-13.018799 0 -23.572617 -10.553833 -23.572617 -23.572632z" fill-rule="nonzero"></path><path fill="#000000" d="m156.03912 408.74643l1.046875 0.265625q-0.328125 1.28125 -1.1875 1.96875q-0.84375 0.671875 -2.078125 0.671875q-1.28125 0 -2.078125 -0.515625q-0.796875 -0.53125 -1.21875 -1.515625q-0.40625 -0.984375 -0.40625 -2.109375q0 -1.21875 0.46875 -2.140625q0.46875 -0.921875 1.328125 -1.390625q0.875 -0.484375 1.921875 -0.484375q1.1875 0 1.984375 0.609375q0.8125 0.59375 1.125 1.6875l-1.03125 0.25q-0.265625 -0.859375 -0.796875 -1.25q-0.515625 -0.390625 -1.296875 -0.390625q-0.921875 0 -1.53125 0.4375q-0.609375 0.421875 -0.859375 1.15625q-0.234375 0.734375 -0.234375 1.515625q0 1.0 0.28125 1.75q0.296875 0.75 0.90625 1.125q0.625 0.375 1.34375 0.375q0.875 0 1.484375 -0.5q0.609375 -0.515625 0.828125 -1.515625z" fill-rule="nonzero"></path><path fill="#000000" d="m159.5316 415.51205l0 -1.203125l-2.171875 0l0 -0.5625l2.28125 -3.25l0.5 0l0 3.25l0.6875 0l0 0.5625l-0.6875 0l0 1.203125l-0.609375 0zm0 -1.765625l0 -2.25l-1.578125 2.25l1.578125 0z" fill-rule="nonzero"></path><path fill="#000000" d="m156.02756 420.51205l-0.609375 0l0 -3.921875q-0.234375 0.21875 -0.59375 0.4375q-0.359375 0.203125 -0.640625 0.3125l0 -0.609375q0.515625 -0.234375 0.890625 -0.578125q0.390625 -0.34375 0.5625 -0.671875l0.390625 0l0 5.03125z" fill-rule="nonzero"></path><path fill="#eeeeee" d="m335.7804 414.27206l0 0c0 -13.018799 10.553833 -23.572632 23.572632 -23.572632l0 0c6.251831 0 12.24762 2.483551 16.668365 6.9042664c4.4207153 4.4207153 6.9042664 10.416504 6.9042664 16.668365l0 0c0 13.018799 -10.553833 23.572632 -23.572632 23.572632l0 0c-13.018799 0 -23.572632 -10.553833 -23.572632 -23.572632z" fill-rule="nonzero"></path><path stroke="#595959" stroke-width="1.0" stroke-linejoin="round" stroke-linecap="butt" d="m335.7804 414.27206l0 0c0 -13.018799 10.553833 -23.572632 23.572632 -23.572632l0 0c6.251831 0 12.24762 2.483551 16.668365 6.9042664c4.4207153 4.4207153 6.9042664 10.416504 6.9042664 16.668365l0 0c0 13.018799 -10.553833 23.572632 -23.572632 23.572632l0 0c-13.018799 0 -23.572632 -10.553833 -23.572632 -23.572632z" fill-rule="nonzero"></path><path fill="#000000" d="m359.99704 408.74643l1.046875 0.265625q-0.328125 1.28125 -1.1875 1.96875q-0.84375 0.671875 -2.078125 0.671875q-1.28125 0 -2.078125 -0.515625q-0.796875 -0.53125 -1.21875 -1.515625q-0.40625 -0.984375 -0.40625 -2.109375q0 -1.21875 0.46875 -2.140625q0.46875 -0.921875 1.328125 -1.390625q0.875 -0.484375 1.921875 -0.484375q1.1875 0 1.984375 0.609375q0.8125 0.59375 1.125 1.6875l-1.03125 0.25q-0.265625 -0.859375 -0.796875 -1.25q-0.515625 -0.390625 -1.296875 -0.390625q-0.921875 0 -1.53125 0.4375q-0.609375 0.421875 -0.859375 1.15625q-0.234375 0.734375 -0.234375 1.515625q0 1.0 0.28125 1.75q0.296875 0.75 0.90625 1.125q0.625 0.375 1.34375 0.375q0.875 0 1.484375 -0.5q0.609375 -0.515625 0.828125 -1.515625z" fill-rule="nonzero"></path><path fill="#000000" d="m363.48953 415.51205l0 -1.203125l-2.171875 0l0 -0.5625l2.28125 -3.25l0.5 0l0 3.25l0.6875 0l0 0.5625l-0.6875 0l0 1.203125l-0.609375 0zm0 -1.765625l0 -2.25l-1.578125 2.25l1.578125 0z" fill-rule="nonzero"></path><path fill="#000000" d="m360.90735 419.9183l0 0.59375l-3.3125 0q-0.015625 -0.21875 0.0625 -0.421875q0.125 -0.34375 0.40625 -0.671875q0.28125 -0.328125 0.8125 -0.765625q0.8125 -0.65625 1.09375 -1.046875q0.296875 -0.40625 0.296875 -0.75q0 -0.359375 -0.265625 -0.609375q-0.265625 -0.25 -0.6875 -0.25q-0.4375 0 -0.703125 0.265625q-0.265625 0.265625 -0.28125 0.734375l-0.625 -0.0625q0.0625 -0.71875 0.484375 -1.078125q0.421875 -0.375 1.140625 -0.375q0.71875 0 1.140625 0.40625q0.421875 0.390625 0.421875 0.984375q0 0.296875 -0.125 0.59375q-0.125 0.28125 -0.40625 0.609375q-0.28125 0.328125 -0.953125 0.875q-0.546875 0.46875 -0.703125 0.640625q-0.15625 0.15625 -0.265625 0.328125l2.46875 0z" fill-rule="nonzero"></path><path fill="#eeeeee" d="m32.295105 284.7895l0 0c0 -13.018799 10.553825 -23.572632 23.572624 -23.572632l0 0c6.25185 0 12.247635 2.483551 16.668365 6.9042664c4.420723 4.4207153 6.9042587 10.416504 6.9042587 16.668365l0 0c0 13.018799 -10.553825 23.572601 -23.572624 23.572601l0 0c-13.018799 0 -23.572624 -10.5538025 -23.572624 -23.572601z" fill-rule="nonzero"></path><path stroke="#595959" stroke-width="1.0" stroke-linejoin="round" stroke-linecap="butt" d="m32.295105 284.7895l0 0c0 -13.018799 10.553825 -23.572632 23.572624 -23.572632l0 0c6.25185 0 12.247635 2.483551 16.668365 6.9042664c4.420723 4.4207153 6.9042587 10.416504 6.9042587 16.668365l0 0c0 13.018799 -10.553825 23.572601 -23.572624 23.572601l0 0c-13.018799 0 -23.572624 -10.5538025 -23.572624 -23.572601z" fill-rule="nonzero"></path><path fill="#000000" d="m56.511757 285.76385l1.046875 0.265625q-0.328125 1.28125 -1.1875 1.96875q-0.84375 0.671875 -2.078125 0.671875q-1.28125 0 -2.078125 -0.515625q-0.796875 -0.53125 -1.21875 -1.515625q-0.40625 -0.984375 -0.40625 -2.109375q0 -1.21875 0.46875 -2.140625q0.46875 -0.921875 1.328125 -1.390625q0.875 -0.484375 1.921875 -0.484375q1.1875 0 1.984375 0.609375q0.8125 0.59375 1.125 1.6875l-1.03125 0.25q-0.265625 -0.859375 -0.796875 -1.25q-0.515625 -0.390625 -1.296875 -0.390625q-0.921875 0 -1.53125 0.4375q-0.609375 0.421875 -0.859375 1.15625q-0.234375 0.734375 -0.234375 1.515625q0 1.0 0.28125 1.75q0.296875 0.75 0.90625 1.125q0.625 0.375 1.34375 0.375q0.875 0 1.484375 -0.5q0.609375 -0.515625 0.828125 -1.515625z" fill-rule="nonzero"></path><path fill="#000000" d="m61.26986 291.93573l0 0.59375l-3.3125 0q-0.015625 -0.21875 0.0625 -0.421875q0.125 -0.34375 0.40625 -0.671875q0.28125 -0.328125 0.8125 -0.765625q0.8125 -0.65625 1.09375 -1.046875q0.296875 -0.40625 0.296875 -0.75q0 -0.359375 -0.265625 -0.609375q-0.265625 -0.25 -0.6875 -0.25q-0.4375 0 -0.703125 0.265625q-0.265625 0.265625 -0.28125 0.734375l-0.625 -0.0625q0.0625 -0.71875 0.484375 -1.078125q0.421875 -0.375 1.140625 -0.375q0.71875 0 1.140625 0.40625q0.421875 0.390625 0.421875 0.984375q0 0.296875 -0.125 0.59375q-0.125 0.28125 -0.40625 0.609375q-0.28125 0.328125 -0.953125 0.875q-0.546875 0.46875 -0.703125 0.640625q-0.15625 0.15625 -0.265625 0.328125l2.46875 0z" fill-rule="nonzero"></path><path fill="#eeeeee" d="m55.631916 123.41623l0 0c0 -13.018799 10.553822 -23.572624 23.57262 -23.572624l0 0c6.2518463 0 12.2476425 2.4835358 16.668365 6.9042664c4.420723 4.420723 6.9042587 10.416512 6.9042587 16.668358l0 0c0 13.018799 -10.553825 23.572632 -23.572624 23.572632l0 0c-13.018799 0 -23.57262 -10.553833 -23.57262 -23.572632z" fill-rule="nonzero"></path><path stroke="#595959" stroke-width="1.0" stroke-linejoin="round" stroke-linecap="butt" d="m55.631916 123.41623l0 0c0 -13.018799 10.553822 -23.572624 23.57262 -23.572624l0 0c6.2518463 0 12.2476425 2.4835358 16.668365 6.9042664c4.420723 4.420723 6.9042587 10.416512 6.9042587 16.668358l0 0c0 13.018799 -10.553825 23.572632 -23.572624 23.572632l0 0c-13.018799 0 -23.57262 -10.553833 -23.57262 -23.572632z" fill-rule="nonzero"></path><path fill="#000000" d="m79.848564 117.8906l1.046875 0.265625q-0.328125 1.28125 -1.1875 1.96875q-0.84375 0.671875 -2.078125 0.671875q-1.28125 0 -2.078125 -0.515625q-0.796875 -0.53125 -1.21875 -1.515625q-0.40625 -0.984375 -0.40625 -2.109375q0 -1.21875 0.46875 -2.140625q0.46875 -0.921875 1.328125 -1.390625q0.875 -0.484375 1.921875 -0.484375q1.1875 0 1.984375 0.609375q0.8125 0.59375 1.125 1.6875l-1.03125 0.25q-0.265625 -0.859375 -0.796875 -1.25q-0.515625 -0.390625 -1.296875 -0.390625q-0.921875 0 -1.53125 0.4375q-0.609375 0.421875 -0.859375 1.15625q-0.234375 0.734375 -0.234375 1.515625q0 1.0 0.28125 1.75q0.296875 0.75 0.90625 1.125q0.625 0.375 1.34375 0.375q0.875 0 1.484375 -0.5q0.609375 -0.515625 0.828125 -1.515625z" fill-rule="nonzero"></path><path fill="#000000" d="m83.68479 124.65623l-0.609375 0l0 -3.921875q-0.234375 0.21875 -0.59375 0.4375q-0.359375 0.203125 -0.640625 0.3125l0 -0.609375q0.515625 -0.234375 0.890625 -0.578125q0.390625 -0.34375 0.5625 -0.671875l0.390625 0l0 5.03125z" fill-rule="nonzero"></path><path fill="#000000" d="m79.83699 129.65623l-0.609375 0l0 -3.9218826q-0.234375 0.21875 -0.59375 0.4375q-0.359375 0.203125 -0.640625 0.3125l0 -0.609375q0.515625 -0.234375 0.890625 -0.578125q0.390625 -0.34375 0.5625 -0.671875l0.390625 0l0 5.0312576z" fill-rule="nonzero"></path><path fill="#eeeeee" d="m435.30777 284.7895l0 0c0 -13.018799 10.553833 -23.572632 23.572632 -23.572632l0 0c6.251831 0 12.24762 2.483551 16.668365 6.9042664c4.4207153 4.4207153 6.9042664 10.416504 6.9042664 16.668365l0 0c0 13.018799 -10.553833 23.572601 -23.572632 23.572601l0 0c-13.018799 0 -23.572632 -10.5538025 -23.572632 -23.572601z" fill-rule="nonzero"></path><path stroke="#595959" stroke-width="1.0" stroke-linejoin="round" stroke-linecap="butt" d="m435.30777 284.7895l0 0c0 -13.018799 10.553833 -23.572632 23.572632 -23.572632l0 0c6.251831 0 12.24762 2.483551 16.668365 6.9042664c4.4207153 4.4207153 6.9042664 10.416504 6.9042664 16.668365l0 0c0 13.018799 -10.553833 23.572601 -23.572632 23.572601l0 0c-13.018799 0 -23.572632 -10.5538025 -23.572632 -23.572601z" fill-rule="nonzero"></path><path fill="#000000" d="m459.5244 285.76385l1.046875 0.265625q-0.328125 1.28125 -1.1875 1.96875q-0.84375 0.671875 -2.078125 0.671875q-1.28125 0 -2.078125 -0.515625q-0.796875 -0.53125 -1.21875 -1.515625q-0.40625 -0.984375 -0.40625 -2.109375q0 -1.21875 0.46875 -2.140625q0.46875 -0.921875 1.328125 -1.390625q0.875 -0.484375 1.921875 -0.484375q1.1875 0 1.984375 0.609375q0.8125 0.59375 1.125 1.6875l-1.03125 0.25q-0.265625 -0.859375 -0.796875 -1.25q-0.515625 -0.390625 -1.296875 -0.390625q-0.921875 0 -1.53125 0.4375q-0.609375 0.421875 -0.859375 1.15625q-0.234375 0.734375 -0.234375 1.515625q0 1.0 0.28125 1.75q0.296875 0.75 0.90625 1.125q0.625 0.375 1.34375 0.375q0.875 0 1.484375 -0.5q0.609375 -0.515625 0.828125 -1.515625z" fill-rule="nonzero"></path><path fill="#000000" d="m461.04816 291.20135l0.609375 -0.078125q0.109375 0.53125 0.359375 0.765625q0.265625 0.21875 0.625 0.21875q0.4375 0 0.734375 -0.296875q0.296875 -0.296875 0.296875 -0.75q0 -0.421875 -0.28125 -0.6875q-0.265625 -0.28125 -0.703125 -0.28125q-0.171875 0 -0.4375 0.0625l0.078125 -0.53125q0.0625 0 0.09375 0q0.390625 0 0.703125 -0.203125q0.328125 -0.203125 0.328125 -0.640625q0 -0.328125 -0.234375 -0.546875q-0.234375 -0.234375 -0.59375 -0.234375q-0.359375 0 -0.59375 0.234375q-0.234375 0.21875 -0.3125 0.671875l-0.609375 -0.109375q0.109375 -0.609375 0.5 -0.953125q0.40625 -0.34375 1.0 -0.34375q0.40625 0 0.75 0.1875q0.359375 0.171875 0.53125 0.46875q0.1875 0.296875 0.1875 0.640625q0 0.328125 -0.171875 0.59375q-0.171875 0.265625 -0.515625 0.421875q0.4375 0.109375 0.6875 0.4375q0.25 0.3125 0.25 0.796875q0 0.65625 -0.484375 1.125q-0.46875 0.453125 -1.203125 0.453125q-0.65625 0 -1.09375 -0.390625q-0.4375 -0.40625 -0.5 -1.03125z" fill-rule="nonzero"></path><path fill="#eeeeee" d="m411.97098 123.41623l0 0c0 -13.018799 10.5538025 -23.572624 23.572601 -23.572624l0 0c6.2518616 0 12.24765 2.4835358 16.668365 6.9042664c4.4207153 4.420723 6.9042664 10.416512 6.9042664 16.668358l0 0c0 13.018799 -10.553833 23.572632 -23.572632 23.572632l0 0c-13.018799 0 -23.572601 -10.553833 -23.572601 -23.572632z" fill-rule="nonzero"></path><path stroke="#595959" stroke-width="1.0" stroke-linejoin="round" stroke-linecap="butt" d="m411.97098 123.41623l0 0c0 -13.018799 10.5538025 -23.572624 23.572601 -23.572624l0 0c6.2518616 0 12.24765 2.4835358 16.668365 6.9042664c4.4207153 4.420723 6.9042664 10.416512 6.9042664 16.668358l0 0c0 13.018799 -10.553833 23.572632 -23.572632 23.572632l0 0c-13.018799 0 -23.572601 -10.553833 -23.572601 -23.572632z" fill-rule="nonzero"></path><path fill="#000000" d="m436.18762 117.8906l1.046875 0.265625q-0.328125 1.28125 -1.1875 1.96875q-0.84375 0.671875 -2.078125 0.671875q-1.28125 0 -2.078125 -0.515625q-0.796875 -0.53125 -1.21875 -1.515625q-0.40625 -0.984375 -0.40625 -2.109375q0 -1.21875 0.46875 -2.140625q0.46875 -0.921875 1.328125 -1.390625q0.875 -0.484375 1.921875 -0.484375q1.1875 0 1.984375 0.609375q0.8125 0.59375 1.125 1.6875l-1.03125 0.25q-0.265625 -0.859375 -0.796875 -1.25q-0.515625 -0.390625 -1.296875 -0.390625q-0.921875 0 -1.53125 0.4375q-0.609375 0.421875 -0.859375 1.15625q-0.234375 0.734375 -0.234375 1.515625q0 1.0 0.28125 1.75q0.296875 0.75 0.90625 1.125q0.625 0.375 1.34375 0.375q0.875 0 1.484375 -0.5q0.609375 -0.515625 0.828125 -1.515625z" fill-rule="nonzero"></path><path fill="#000000" d="m440.02383 124.65623l-0.609375 0l0 -3.921875q-0.234375 0.21875 -0.59375 0.4375q-0.359375 0.203125 -0.640625 0.3125l0 -0.609375q0.515625 -0.234375 0.890625 -0.578125q0.390625 -0.34375 0.5625 -0.671875l0.390625 0l0 5.03125z" fill-rule="nonzero"></path><path fill="#000000" d="m433.86353 128.32811l0.609375 -0.078125q0.109375 0.53125 0.359375 0.765625q0.265625 0.21875 0.625 0.21875q0.4375 0 0.734375 -0.296875q0.296875 -0.296875 0.296875 -0.75q0 -0.42188263 -0.28125 -0.6875076q-0.265625 -0.28125 -0.703125 -0.28125q-0.171875 0 -0.4375 0.0625l0.078125 -0.53125q0.0625 0 0.09375 0q0.390625 0 0.703125 -0.203125q0.328125 -0.203125 0.328125 -0.640625q0 -0.328125 -0.234375 -0.546875q-0.234375 -0.234375 -0.59375 -0.234375q-0.359375 0 -0.59375 0.234375q-0.234375 0.21875 -0.3125 0.671875l-0.609375 -0.109375q0.109375 -0.609375 0.5 -0.953125q0.40625 -0.34375 1.0 -0.34375q0.40625 0 0.75 0.1875q0.359375 0.171875 0.53125 0.46875q0.1875 0.296875 0.1875 0.640625q0 0.328125 -0.171875 0.59375q-0.171875 0.265625 -0.515625 0.421875q0.4375 0.109375 0.6875 0.4375q0.25 0.3125 0.25 0.7968826q0 0.65625 -0.484375 1.125q-0.46875 0.453125 -1.203125 0.453125q-0.65625 0 -1.09375 -0.390625q-0.4375 -0.40625 -0.5 -1.03125z" fill-rule="nonzero"></path><path fill="#000000" fill-opacity="0.0" d="m95.8729 106.74787l137.91187 -79.47418" fill-rule="nonzero"></path><path stroke="#e69138" stroke-width="2.0" stroke-linejoin="round" stroke-linecap="butt" stroke-dasharray="8.0,6.0" d="m95.8729 106.74787l137.91187 -79.47418" fill-rule="nonzero"></path><path fill="#000000" fill-opacity="0.0" d="m280.9467 27.285933l137.91187 79.474174" fill-rule="nonzero"></path><path stroke="#e69138" stroke-width="2.0" stroke-linejoin="round" stroke-linecap="butt" stroke-dasharray="8.0,6.0" d="m280.9467 27.285933l137.91187 79.474174" fill-rule="nonzero"></path><path fill="#000000" fill-opacity="0.0" d="m335.7804 414.27206l-156.81267 0" fill-rule="nonzero"></path><path stroke="#e69138" stroke-width="2.0" stroke-linejoin="round" stroke-linecap="butt" stroke-dasharray="8.0,6.0" d="m335.7804 414.27206l-156.81267 0" fill-rule="nonzero"></path><path fill="#000000" fill-opacity="0.0" d="m79.20454 146.98886l-23.33236 114.23245" fill-rule="nonzero"></path><path stroke="#6aa84f" stroke-width="2.0" stroke-linejoin="round" stroke-linecap="butt" stroke-dasharray="8.0,6.0" d="m79.20454 146.98886l-23.33236 114.23245" fill-rule="nonzero"></path><path fill="#000000" fill-opacity="0.0" d="m95.8729 140.0846l339.44046 144.69266" fill-rule="nonzero"></path><path stroke="#6aa84f" stroke-width="1.0" stroke-linejoin="round" stroke-linecap="butt" stroke-dasharray="1.0,3.0" d="m95.8729 140.0846l339.44046 144.69266" fill-rule="nonzero"></path><path fill="#000000" fill-opacity="0.0" d="m95.8729 140.0846l246.80511 257.51022" fill-rule="nonzero"></path><path stroke="#6aa84f" stroke-width="1.0" stroke-linejoin="round" stroke-linecap="butt" stroke-dasharray="1.0,3.0" d="m95.8729 140.0846l246.80511 257.51022" fill-rule="nonzero"></path><path fill="#000000" fill-opacity="0.0" d="m102.77716 123.41623l309.19382 0" fill-rule="nonzero"></path><path stroke="#e69138" stroke-width="1.0" stroke-linejoin="round" stroke-linecap="butt" stroke-dasharray="1.0,3.0" d="m102.77716 123.41623l309.19382 0" fill-rule="nonzero"></path><path fill="#000000" fill-opacity="0.0" d="m95.8729 140.0846l42.87388 257.51022" fill-rule="nonzero"></path><path stroke="#ff0000" stroke-width="2.0" stroke-linejoin="round" stroke-linecap="butt" d="m95.8729 140.0846l42.87388 257.51022" fill-rule="nonzero"></path><path fill="#000000" fill-opacity="0.0" d="m240.7057 43.954292l-168.15851 224.16684" fill-rule="nonzero"></path><path stroke="#6aa84f" stroke-width="2.0" stroke-linejoin="round" stroke-linecap="butt" d="m240.7057 43.954292l-168.15851 224.16684" fill-rule="nonzero"></path><path fill="#000000" fill-opacity="0.0" d="m240.7057 43.954292l-85.32062 346.7285" fill-rule="nonzero"></path><path stroke="#6aa84f" stroke-width="2.0" stroke-linejoin="round" stroke-linecap="butt" d="m240.7057 43.954292l-85.32062 346.7285" fill-rule="nonzero"></path><path fill="#000000" fill-opacity="0.0" d="m274.04242 43.954292l168.15851 224.16684" fill-rule="nonzero"></path><path stroke="#ff0000" stroke-width="2.0" stroke-linejoin="round" stroke-linecap="butt" d="m274.04242 43.954292l168.15851 224.16684" fill-rule="nonzero"></path><path fill="#000000" fill-opacity="0.0" d="m274.04242 43.954292l85.32062 346.7285" fill-rule="nonzero"></path><path stroke="#ff0000" stroke-width="2.0" stroke-linejoin="round" stroke-linecap="butt" d="m274.04242 43.954292l85.32062 346.7285" fill-rule="nonzero"></path><path fill="#000000" fill-opacity="0.0" d="m418.8752 140.0846l-339.44043 144.69266" fill-rule="nonzero"></path><path stroke="#ff0000" stroke-width="2.0" stroke-linejoin="round" stroke-linecap="butt" d="m418.8752 140.0846l-339.44043 144.69266" fill-rule="nonzero"></path><path fill="#000000" fill-opacity="0.0" d="m418.8752 140.0846l-246.80508 257.51022" fill-rule="nonzero"></path><path stroke="#6aa84f" stroke-width="2.0" stroke-linejoin="round" stroke-linecap="butt" stroke-dasharray="8.0,6.0" d="m418.8752 140.0846l-246.80508 257.51022" fill-rule="nonzero"></path><path fill="#000000" fill-opacity="0.0" d="m418.8752 140.0846l-42.87387 257.51022" fill-rule="nonzero"></path><path stroke="#6aa84f" stroke-width="1.0" stroke-linejoin="round" stroke-linecap="butt" stroke-dasharray="1.0,3.0" d="m418.8752 140.0846l-42.87387 257.51022" fill-rule="nonzero"></path><path fill="#000000" fill-opacity="0.0" d="m435.54358 146.98886l23.332367 114.23245" fill-rule="nonzero"></path><path stroke="#6aa84f" stroke-width="1.0" stroke-linejoin="round" stroke-linecap="butt" stroke-dasharray="1.0,3.0" d="m435.54358 146.98886l23.332367 114.23245" fill-rule="nonzero"></path><path fill="#000000" fill-opacity="0.0" d="m172.06346 397.6037l270.13745 -96.15921" fill-rule="nonzero"></path><path stroke="#6aa84f" stroke-width="2.0" stroke-linejoin="round" stroke-linecap="butt" stroke-dasharray="8.0,6.0" d="m172.06346 397.6037l270.13745 -96.15921" fill-rule="nonzero"></path><path fill="#000000" fill-opacity="0.0" d="m131.81802 414.23868l-75.950294 -105.87659" fill-rule="nonzero"></path><path stroke="#6aa84f" stroke-width="2.0" stroke-linejoin="round" stroke-linecap="butt" d="m131.81802 414.23868l-75.950294 -105.87659" fill-rule="nonzero"></path><path fill="#000000" fill-opacity="0.0" d="m342.68466 397.6037l-270.13745 -96.15921" fill-rule="nonzero"></path><path stroke="#6aa84f" stroke-width="2.0" stroke-linejoin="round" stroke-linecap="butt" stroke-dasharray="8.0,6.0" d="m342.68466 397.6037l-270.13745 -96.15921" fill-rule="nonzero"></path><path fill="#000000" fill-opacity="0.0" d="m382.92566 414.27206l75.97699 -105.92999" fill-rule="nonzero"></path><path stroke="#ff0000" stroke-width="1.0" stroke-linejoin="round" stroke-linecap="butt" stroke-dasharray="1.0,3.0" d="m382.92566 414.27206l75.97699 -105.92999" fill-rule="nonzero"></path><path fill="#000000" fill-opacity="0.0" d="m79.422554 284.7895l355.88522 0" fill-rule="nonzero"></path><path stroke="#ff0000" stroke-width="2.0" stroke-linejoin="round" stroke-linecap="butt" d="m79.422554 284.7895l355.88522 0" fill-rule="nonzero"></path></g></svg>

